<?xml version="1.0" encoding="iso-8859-1"?>
<!-- Generator: Adobe Illustrator 19.0.0, SVG Export Plug-In . SVG Version: 6.00 Build 0)  -->
<svg version="1.1" id="Capa_1" xmlns="http://www.w3.org/2000/svg" xmlns:xlink="http://www.w3.org/1999/xlink" x="0px" y="0px"
	 viewBox="0 0 512 512" style="enable-background:new 0 0 512 512;" xml:space="preserve">
<path style="fill:#FF5A5F;" d="M512,256c0,141.385-114.615,256-256,256S0,397.385,0,256S114.615,0,256,0S512,114.615,512,256z"/>
<path style="fill:#E3B954;" d="M343.703,42.051l25.289,94.381c1.429,5.335-1.736,10.818-7.071,12.247L153.84,204.435
	c-5.335,1.429-10.818-1.736-12.247-7.071l-25.289-94.381c-1.429-5.335,1.736-10.818,7.071-12.247l208.08-55.756
	C336.79,33.551,342.273,36.717,343.703,42.051z"/>
<path style="fill:#D6A74F;" d="M182.173,196.843l-28.334,7.592c-5.335,1.429-10.818-1.736-12.247-7.071l-25.289-94.381
	c-1.429-5.335,1.736-10.818,7.071-12.247l28.334-7.592c-5.335,1.429-8.501,6.913-7.071,12.247l25.289,94.381
	C171.355,195.107,176.839,198.272,182.173,196.843z"/>
<path style="fill:#EDC85F;" d="M412.599,136.749l62.283,232.445c1.429,5.335-1.736,10.818-7.071,12.247l-248.688,66.636
	c-5.335,1.429-10.818-1.736-12.247-7.071l-62.283-232.445c-1.429-5.335,1.736-10.818,7.071-12.247l248.688-66.636
	C405.686,128.249,411.17,131.414,412.599,136.749z"/>
<path style="fill:#E3B954;" d="M249.91,439.828l-30.786,8.249c-5.335,1.429-10.818-1.737-12.247-7.071l-62.284-232.445
	c-1.429-5.335,1.736-10.818,7.071-12.247l30.786-8.249c-5.335,1.429-8.501,6.913-7.071,12.247l62.284,232.445
	C239.092,438.091,244.576,441.258,249.91,439.828z"/>
<g>
	<path style="fill:#FFFAD2;" d="M322.823,226.707l-7.765-28.978c-0.715-2.667,0.868-5.409,3.536-6.124l101.422-27.176l10.353,38.637
		l-101.422,27.176C326.279,230.957,323.538,229.374,322.823,226.707z"/>
	<path style="fill:#FFFAD2;" d="M295.057,99.561l-7.765-28.978c-0.715-2.667,0.868-5.409,3.536-6.124l54.935-14.72l10.353,38.637
		l-54.935,14.72C298.513,103.811,295.772,102.228,295.057,99.561z"/>
</g>
<path style="fill:#323750;" d="M482.258,396.72l-264.451,70.86l-19.798,5.305l-12.688,3.399L82.608,92.954l-32.329,8.663
	l-11.833,3.171c-8.971,2.403-18.191-2.92-20.595-11.891c-0.451-1.682-0.63-3.373-0.564-5.026c0.088-2.204,0.61-4.341,1.505-6.3
	c2.012-4.408,5.904-7.917,10.95-9.27l33.122-8.875l11.041-2.958l20.809-5.576l3.555-0.952c3.644-0.977,7.371,0.597,9.285,3.628
	c0.147,0.233,0.284,0.475,0.409,0.725c0.25,0.5,0.453,1.032,0.604,1.592l18.477,68.957l9.903,36.958l0,0l72.157,269.293
	l264.451-70.859c8.971-2.404,18.191,2.92,20.595,11.891S491.229,394.317,482.258,396.72z"/>
<path style="fill:#505A8C;" d="M363.454,371.111c0.286,1.067-0.347,2.164-1.414,2.45l-7.034,1.885l0,0l-9.659,2.588l0,0
	l-37.398,10.021c-1.067,0.286-2.164-0.347-2.449-1.414l-1.553-5.796c-0.286-1.067,0.347-2.164,1.414-2.449l7.034-1.885
	l-5.176-19.318l-7.397,1.982c-1.095,0.293-2.146-0.597-2.036-1.725l3.49-35.879c0.065-0.673,0.542-1.236,1.196-1.411
	c0.654-0.175,1.347,0.073,1.741,0.624l20.962,29.327c0.659,0.922,0.194,2.218-0.9,2.512l-7.397,1.982l5.176,19.319l20.705-5.548
	l-5.176-19.318l-7.397,1.982c-1.095,0.293-2.146-0.597-2.036-1.725l3.49-35.879c0.065-0.673,0.542-1.235,1.196-1.411
	s1.347,0.073,1.741,0.624l20.962,29.327c0.659,0.922,0.194,2.219-0.901,2.512l-7.396,1.982l5.176,19.318l7.034-1.885
	c1.067-0.286,2.164,0.347,2.449,1.414L363.454,371.111z M412.268,360.102l27.046-7.247c1.067-0.286,1.7-1.383,1.414-2.449
	l-1.553-5.795c-0.286-1.067-1.383-1.7-2.449-1.414l-22.216,5.953l-2.698-10.067c13.088-5.972,20.34-20.682,16.493-35.04
	l-3.882-14.489c-0.286-1.067-1.383-1.7-2.449-1.414l-54.092,14.494c-1.067,0.286-1.7,1.383-1.414,2.449l3.882,14.489
	c3.847,14.357,17.483,23.471,31.803,22.099l2.698,10.067l-22.216,5.953c-1.067,0.286-1.7,1.383-1.414,2.449l1.553,5.796
	c0.286,1.067,1.383,1.7,2.45,1.414l22.216-5.953l0,0L412.268,360.102z"/>
<path style="fill:#FFFAD2;" d="M218.19,509.215c-24.851-3.679-48.532-10.935-70.517-21.218
	c-6.149-7.306-10.842-16.034-13.477-25.868c-9.615-35.882,11.68-72.765,47.562-82.38s72.766,11.68,82.38,47.562
	C273.607,462.649,253.087,498.937,218.19,509.215z"/>
<path style="fill:#3C5064;" d="M227.592,437.104c4.206,15.699-5.11,31.835-20.808,36.041c-15.699,4.206-31.835-5.11-36.041-20.808
	c-4.206-15.699,5.11-31.835,20.808-36.041C207.249,412.089,223.385,421.405,227.592,437.104z"/>
<g>
</g>
<g>
</g>
<g>
</g>
<g>
</g>
<g>
</g>
<g>
</g>
<g>
</g>
<g>
</g>
<g>
</g>
<g>
</g>
<g>
</g>
<g>
</g>
<g>
</g>
<g>
</g>
<g>
</g>
</svg>
