<svg height="464pt" viewBox="0 0 464 464" width="464pt" xmlns="http://www.w3.org/2000/svg"><path d="m464 232c-.027344 119.261719-90.445312 219.085938-209.121094 230.878906-7.519531.722656-15.199218 1.121094-22.878906 1.121094-128.128906 0-232-103.871094-232-232s103.871094-232 232-232 232 103.871094 232 232zm0 0" fill="#d1d3d4"/><path d="m449.28125 313.28125c-30.945312 82.875-106.363281 140.910156-194.402344 149.597656l-86.878906-86.878906h64v-233.761719l8-38.238281zm0 0" fill="#b7b9ba"/><path d="m232 96c-8.835938 0-16 7.164062-16 16v216h32v-216c0-8.835938-7.164062-16-16-16zm0 0" fill="#a97c50"/><path d="m192 328c-8.824219.027344-15.972656 7.175781-16 16v24h112v-24c-.027344-8.824219-7.175781-15.972656-16-16zm0 0" fill="#aa6100"/><path d="m168 360h128v16h-128zm0 0" fill="#804900"/><path d="m71.710938 245.472656-14.398438-6.945312 39.488281-82c1.320313-2.746094 4.089844-4.5 7.136719-4.527344h.0625c3.03125 0 5.804688 1.710938 7.160156 4.425781l40 80-14.320312 7.148438-32.703125-65.414063zm0 0" fill="#806749"/><path d="m327.710938 245.472656-14.398438-6.945312 39.488281-82c1.320313-2.746094 4.089844-4.5 7.136719-4.527344h.0625c3.046875-.015625 5.839844 1.699219 7.199219 4.425781l40 80-14.320313 7.148438-32.742187-65.414063zm0 0" fill="#806749"/><path d="m200 120h64v16h-64zm0 0" fill="#cc7400"/><path d="m381.472656 144.414062-21.472656 7.152344-21.472656-7.152344c-.8125-.273437-1.667969-.410156-2.527344-.414062h-208c-.859375.003906-1.714844.140625-2.527344.414062l-21.472656 7.152344-21.472656-7.152344-5.054688 15.203126 24 8c1.640625.554687 3.414063.554687 5.054688 0l22.769531-7.617188h205.40625l22.769531 7.585938c1.640625.554687 3.414063.554687 5.054688 0l24-8zm0 0" fill="#aa6100"/><g fill="#ffcd00"><path d="m144 232h-80c-4.417969 0-8 3.582031-8 8v16c0 13.253906 10.746094 24 24 24h48c13.253906 0 24-10.746094 24-24v-16c0-4.417969-3.582031-8-8-8zm0 0"/><path d="m400 232h-80c-4.417969 0-8 3.582031-8 8v16c0 13.253906 10.746094 24 24 24h48c13.253906 0 24-10.746094 24-24v-16c0-4.417969-3.582031-8-8-8zm0 0"/></g></svg>