<?xml version="1.0" encoding="iso-8859-1"?>
<!-- Generator: Adobe Illustrator 19.0.0, SVG Export Plug-In . SVG Version: 6.00 Build 0)  -->
<svg version="1.1" id="Capa_1" xmlns="http://www.w3.org/2000/svg" xmlns:xlink="http://www.w3.org/1999/xlink" x="0px" y="0px"
	 viewBox="0 0 512 512" style="enable-background:new 0 0 512 512;" xml:space="preserve">
<circle style="fill:#1F66CC;" cx="256" cy="256" r="256"/>
<path style="fill:#154797;" d="M512,256c0-8.215-0.403-16.336-1.16-24.353L365.662,86.469l-14.321,66.157l-66.157-66.157
	l-9.676,70.801l-70.801-70.801L125,240l133.086,133.085L125,412l97.87,97.87c10.846,1.402,21.903,2.13,33.13,2.13
	C397.385,512,512,397.385,512,256z"/>
<g>
	<rect x="146.34" y="258.47" style="fill:#00BED2;" width="58.37" height="53.06"/>
	<rect x="226.82" y="258.47" style="fill:#00BED2;" width="58.37" height="53.06"/>
</g>
<g>
	<rect x="255.95" y="258.47" style="fill:#028F96;" width="29.23" height="53.06"/>
	<rect x="307.29" y="258.47" style="fill:#028F96;" width="58.37" height="53.06"/>
</g>
<rect x="125" y="292" style="fill:#7AE5FE;" width="262" height="120"/>
<rect x="255.95" y="292" style="fill:#00BED2;" width="131.05" height="120"/>
<g>
	<rect x="146.34" y="86.47" style="fill:#FFA899;" width="58.37" height="53.06"/>
	<rect x="226.82" y="86.47" style="fill:#FFA899;" width="58.37" height="53.06"/>
</g>
<g>
	<rect x="255.95" y="86.47" style="fill:#FF6472;" width="29.23" height="53.06"/>
	<rect x="307.29" y="86.47" style="fill:#FF6472;" width="58.37" height="53.06"/>
</g>
<rect x="125" y="120" style="fill:#FFCABC;" width="262" height="120"/>
<rect x="255.95" y="120" style="fill:#FFA899;" width="131.05" height="120"/>
<g>
</g>
<g>
</g>
<g>
</g>
<g>
</g>
<g>
</g>
<g>
</g>
<g>
</g>
<g>
</g>
<g>
</g>
<g>
</g>
<g>
</g>
<g>
</g>
<g>
</g>
<g>
</g>
<g>
</g>
</svg>
